<svg width="32" height="32" viewBox="0 0 32 32" fill="none" xmlns="http://www.w3.org/2000/svg">
<rect x="0.5" y="0.5" width="31" height="31" rx="14.5" stroke="#EFEFEF"/>
<path fill-rule="evenodd" clip-rule="evenodd" d="M15.0902 11.9749C13.977 10.907 12.172 10.907 11.0587 11.9749C9.94545 13.0428 9.94545 14.7743 11.0587 15.8423L11.5358 16.2999C11.5436 16.3074 11.5512 16.3151 11.5585 16.3229L16 20.5835L20.4413 16.3231C20.4487 16.3152 20.4563 16.3075 20.4642 16.2999L20.9413 15.8423C22.0545 14.7743 22.0545 13.0428 20.9413 11.9749C19.828 10.907 18.023 10.907 16.9098 11.9749L16.4327 12.4326C16.1937 12.6618 15.8063 12.6618 15.5673 12.4326L15.0902 11.9749ZM21.353 17.1075C21.3457 17.1153 21.338 17.1231 21.3302 17.1306L16.4333 21.8281C16.3185 21.9382 16.1628 22 16.0005 22H15.9995C15.8372 22 15.6815 21.9382 15.5667 21.8281L10.6698 17.1306C10.662 17.1231 10.6543 17.1153 10.647 17.1075L10.1934 16.6724C8.6022 15.146 8.6022 12.6712 10.1934 11.1448C11.7846 9.6184 14.3644 9.6184 15.9556 11.1448L16 11.1874L16.0444 11.1448C17.6356 9.6184 20.2154 9.6184 21.8066 11.1448C23.3978 12.6712 23.3978 15.146 21.8066 16.6724L21.353 17.1075Z" fill="#6D6E70"/>
</svg>
