<svg width="32" height="32" viewBox="0 0 32 32" fill="none" xmlns="http://www.w3.org/2000/svg">
<rect x="1" y="1" width="30" height="30" rx="14" stroke="#EFEFEF" stroke-width="2"/>
<path fill-rule="evenodd" clip-rule="evenodd" d="M15.0088 11.5751C13.7958 10.3621 11.8293 10.3621 10.6163 11.5751C9.40339 12.788 9.40339 14.7546 10.6163 15.9675L11.1361 16.4873C11.1446 16.4958 11.1529 16.5045 11.1609 16.5134L16 21.3526L20.8389 16.5136C20.847 16.5047 20.8553 16.4959 20.8639 16.4873L21.3837 15.9675C22.5966 14.7546 22.5966 12.788 21.3837 11.5751C20.1707 10.3621 18.2042 10.3621 16.9912 11.5751L16.4714 12.0949C16.2111 12.3552 15.7889 12.3552 15.5286 12.0949L15.0088 11.5751ZM21.8323 17.4045C21.8243 17.4135 21.816 17.4222 21.8074 17.4308L16.4721 22.7661C16.347 22.8912 16.1774 22.9614 16.0005 22.9614C16.0004 22.9614 16.0007 22.9614 16.0005 22.9614C16.0004 22.9614 15.9996 22.9614 15.9995 22.9614C15.8226 22.9614 15.653 22.8912 15.5279 22.7661L10.1926 17.4308C10.184 17.4222 10.1757 17.4135 10.1677 17.4045L9.67352 16.9103C7.93988 15.1767 7.93988 12.3659 9.67352 10.6323C11.4072 8.89862 14.218 8.89862 15.9516 10.6323L16 10.6807L16.0484 10.6323C17.782 8.89862 20.5928 8.89862 22.3265 10.6323C24.0601 12.3659 24.0601 15.1767 22.3265 16.9103L21.8323 17.4045Z" fill="#6D6E70"/>
</svg>
