<svg width="25" height="24" viewBox="0 0 25 24" fill="none" xmlns="http://www.w3.org/2000/svg">
<g clip-path="url(#clip0_198273_130)">
<path fill-rule="evenodd" clip-rule="evenodd" d="M10.7633 5.36261C8.94389 3.54319 5.99403 3.54319 4.17462 5.36261C2.3552 7.18202 2.35521 10.1319 4.17462 11.9513L4.95433 12.731C4.96707 12.7437 4.97944 12.7568 4.99142 12.7701L12.2501 20.0289L19.5085 12.7705C19.5206 12.7571 19.533 12.7439 19.5459 12.731L20.3256 11.9513C22.145 10.1319 22.145 7.18202 20.3256 5.36261C18.5062 3.54319 15.5563 3.54319 13.7369 5.36261L12.9572 6.14232C12.5667 6.53284 11.9335 6.53284 11.543 6.14232L10.7633 5.36261ZM20.9986 14.1068C20.9865 14.1202 20.974 14.1333 20.9612 14.1462L12.9583 22.1491C12.7707 22.3367 12.5162 22.4421 12.2509 22.442C12.2507 22.442 12.2512 22.442 12.2509 22.442C12.2507 22.442 12.2496 22.442 12.2493 22.442C11.984 22.4421 11.7296 22.3367 11.542 22.1491L3.53909 14.1462C3.52619 14.1333 3.51372 14.1202 3.50167 14.1068L2.76041 13.3655C0.159944 10.765 0.159941 6.54886 2.76041 3.9484C5.36087 1.34793 9.57705 1.34793 12.1775 3.9484L12.2501 4.021L12.3227 3.9484C14.9232 1.34793 19.1394 1.34793 21.7398 3.9484C24.3403 6.54886 24.3403 10.765 21.7398 13.3655L20.9986 14.1068Z" fill="#2D3648"/>
</g>
<defs>
<clipPath id="clip0_198273_130">
<rect width="24" height="24" fill="white" transform="translate(0.25)"/>
</clipPath>
</defs>
</svg>
