<svg width="14" height="12" viewBox="0 0 14 12" fill="none" xmlns="http://www.w3.org/2000/svg">
<path fill-rule="evenodd" clip-rule="evenodd" d="M6.09024 1.9749C4.97697 0.906954 3.172 0.906954 2.05872 1.9749C0.945451 3.04284 0.945452 4.77431 2.05873 5.84226L2.53581 6.29992C2.54361 6.3074 2.55118 6.31506 2.55851 6.32289L7 10.5835L11.4413 6.32308C11.4487 6.31521 11.4563 6.30749 11.4642 6.29992L11.9413 5.84226C13.0545 4.77431 13.0545 3.04284 11.9413 1.9749C10.828 0.906954 9.02303 0.906954 7.90976 1.9749L7.43267 2.43256C7.19371 2.66179 6.80629 2.66179 6.56733 2.43256L6.09024 1.9749ZM12.353 7.10746C12.3457 7.11533 12.338 7.12305 12.3302 7.13062L7.4333 11.8281C7.31851 11.9382 7.16282 12 7.00049 12H6.99951C6.83718 12 6.68149 11.9382 6.5667 11.8281L1.66985 7.13062C1.66196 7.12305 1.65433 7.11532 1.64696 7.10745L1.19339 6.67236C-0.397795 5.14596 -0.397797 2.67119 1.19339 1.1448C2.78457 -0.381598 5.36439 -0.381598 6.95558 1.14479L7 1.18741L7.04442 1.14479C8.63561 -0.381598 11.2154 -0.381598 12.8066 1.14479C14.3978 2.67119 14.3978 5.14596 12.8066 6.67236L12.353 7.10746Z" fill="#6D6E70"/>
</svg>
