<svg width="25" height="25" viewBox="0 0 25 25" fill="none" xmlns="http://www.w3.org/2000/svg">
<g clip-path="url(#clip0_198273_125)">
<path fill-rule="evenodd" clip-rule="evenodd" d="M1.5 0.5C0.947715 0.5 0.5 0.947715 0.5 1.5C0.5 2.05228 0.947715 2.5 1.5 2.5H4.68032L5.51195 6.65508C5.51638 6.68353 5.52201 6.71159 5.52879 6.7392L7.19916 15.0848C7.33647 15.7751 7.71225 16.3959 8.26048 16.8373C8.8062 17.2766 9.48837 17.511 10.1886 17.5H19.8914C20.5916 17.511 21.2738 17.2766 21.8195 16.8373C22.368 16.3958 22.7437 15.7754 22.8808 15.0848L22.8823 15.0773L24.4823 6.68733C24.5381 6.39458 24.4605 6.09218 24.2705 5.86256C24.0805 5.63293 23.798 5.5 23.5 5.5H7.32043L6.48055 1.30374C6.38701 0.836385 5.97663 0.5 5.5 0.5H1.5ZM7.72073 7.5H22.2913L20.9185 14.6984C20.8723 14.9273 20.7474 15.1328 20.5654 15.2793C20.3826 15.4265 20.1538 15.5047 19.9192 15.5002L19.9 15.5H10.18L10.1608 15.5002C9.92619 15.5047 9.69743 15.4265 9.51461 15.2793C9.33179 15.1322 9.20656 14.9254 9.16084 14.6952L7.72073 7.5Z" fill="#2D3648"/>
<path d="M7.5 21.5C7.5 20.3954 8.39543 19.5 9.5 19.5C10.6046 19.5 11.5 20.3954 11.5 21.5C11.5 22.6046 10.6046 23.5 9.5 23.5C8.39543 23.5 7.5 22.6046 7.5 21.5Z" fill="#2D3648"/>
<path d="M18.5 21.5C18.5 20.3954 19.3954 19.5 20.5 19.5C21.6046 19.5 22.5 20.3954 22.5 21.5C22.5 22.6046 21.6046 23.5 20.5 23.5C19.3954 23.5 18.5 22.6046 18.5 21.5Z" fill="#2D3648"/>
</g>
<defs>
<clipPath id="clip0_198273_125">
<rect width="24" height="24" fill="white" transform="translate(0.5 0.5)"/>
</clipPath>
</defs>
</svg>
